          888    d8P         d8888 8888888b.  d8b 888b    888        d8888 
          888   d8P         d88888 888   Y88b Y8P 8888b   888       d88888 
          888  d8P         d88P888 888    888     88888b  888      d88P888 
          888d88K         d88P 888 888   d88P 888 888Y88b 888     d88P 888 
          8888888b       d88P  888 8888888P"  888 888 Y88b888    d88P  888 
          888  Y88b     d88P   888 888 T88b   888 888  Y88888   d88P   888 
          888   Y88b   d8888888888 888  T88b  888 888   Y8888  d8888888888 
          888    Y88b d88P     888 888   T88b 888 888    Y888 d88P     888

              The.Last.Days.of.Disco.1998.CRITERION.DVDRip.XviD-KARiNA 
            
                                                             
Synopsis.

The Last Days of Disco | USA | 1998 | Directed by Whit Stillman
                                  
The Last Days of Disco is a clever, comic return to the nighttime party scene in early eighties Manhattan from director Whit Stillman (Metropolitan). At the center of the film’s roundelay of revelers are the icy Charlotte (Kate Beckinsale) and the demure Alice (Chloë Sevigny), by day toiling as publishing house assistants and by night looking for romance and entertainment at a premier, Studio 54–like club. The Last Days of Disco is an affectionate yet unsentimental look at the end of an era, brimming with Stillman’s trademark dry humor.

IMdB: http://www.imdb.com/title/tt0120728/ | Rating: 6.1 / 10 (4,719 votes)
                                     
General.
                                                                  
Complete name                    : The.Last.Days.of.Disco.1998.CRITERION.DVDRip.XviD-KARiNA
Format                           : AVI
File size                        : 1.37 GiB
Duration                         : 1h 53mn
Overall bit rate                 : 1 719 Kbps
Source                           : Criterion NTSC DVD9
                                       
Video.                         

Format                           : MPEG-4 Visual
Codec ID                         : XVID
Bit rate                         : 1 264 Kbps
Width                            : 656 pixels
Height                           : 368 pixels
Display aspect ratio             : 16/9
Frame rate                       : 23.976 fps
Resolution                       : 24 bits
Colorimetry                      : 4:2:0
Scan type                        : Progressive
Bits/(Pixel*Frame)               : 0.218
Stream size                      : 1.01 GiB (74%)

Audio.                           

Format                           : AC-3
Bit rate                         : 448 Kbps
Channel(s)                       : 6 channels
Channel positions                : Front: L C R, Surround: L R, LFE
Sampling rate                    : 48.0 KHz
Stream size                      : 365 MiB (26%)
Language                         : English

KARiNA.